<svg xmlns="http://www.w3.org/2000/svg" width="221" height="73"><path fill-rule="evenodd" d="M215.68 51.829c2.97 1.71 5.219 4.68 5.219 8.1 0 1.08-.9 1.98-1.979 1.98-1.08 0-1.89-.9-1.89-1.98 0-2.52-1.98-3.87-2.79-4.23-3.96 10.17-12.78 16.649-20.789 16.649-4.41 0-8.37-2.16-8.37-7.649 0-9.27 11.609-15.12 21.059-15.12 2.07 0 4.14.27 5.76.81 1.44-4.499 2.79-11.789 3.33-17.279-2.25 6.3-7.02 11.519-11.43 11.519-5.58 0-7.47-6.029-7.47-12.329 0-6.21 1.35-13.049 1.98-16.379.18-.63.45-2.07 2.16-2.07 1.08 0 1.98.9 1.98 2.07l-.09.36c-.72 3.87-1.98 10.259-1.98 16.019 0 2.61.36 8.37 3.42 8.37 5.49 0 12.24-14.04 12.15-24.929 0-1.08.99-1.89 2.07-1.89 1.08 0 1.8.9 1.8 1.98 0 4.049-.631 12.869-.9 17.099-.27 3.78-.9 11.16-3.24 18.899zm-9.54 1.44c-7.47 0-17.009 4.77-17.009 11.16 0 2.88 2.43 4.229 4.859 4.229 6.21 0 13.32-5.849 16.83-14.849-1.26-.36-3.15-.54-4.68-.54zm-25.92-8.729c-1.62 0-3.33-.36-5.13-.63-2.25-.45-4.59-.9-7.11-.9-2.07 0-4.14.27-6.389.99-.09.09-.36.09-.72.09-1.08 0-1.98-.9-1.98-1.89 0-.63.18-1.08.45-1.44 5.399-5.58 8.369-9.72 11.339-13.95 1.8-2.52 4.77-6.03 6.84-8.369-1.8 0-8.46-.9-9.81-.9-1.62 0-1.98.45-2.25.99-.36.81-1.079 1.17-1.8 1.17-1.079 0-2.069-.9-2.069-1.98 0-.9 1.439-3.96 6.119-3.96.72 0 2.7.27 4.77.54 2.07.27 4.14.54 4.86.54 1.26 0 2.25-.18 2.7-.45l.27-.27c.27-.27.72-.45 1.26-.45 2.16 0 2.25 1.71 2.25 1.98 0 .54-.18.99-.45 1.44-4.23 4.589-6.93 8.279-9.54 11.969-2.25 3.15-7.11 8.91-9.09 10.8 3.33-.63 8.19-.18 10.98.36 1.71.36 3.24.63 4.5.63 2.79 0 2.88-.99 2.88-2.7 0-1.08.63-1.89 1.71-1.98 1.98-.45 2.249 1.44 2.249 2.43 0 3.87-2.879 5.94-6.839 5.94zM148 40.67c0 .54.09.9.18 1.17.18.36.36.63.36 1.08 0 .99-.99 1.889-2.07 1.889-1.98 0-2.52-2.519-2.52-4.319 0-1.89.54-4.41.99-7.65.54-3.33 1.17-6.84 1.17-9.99 0-4.319-2.339-5.939-4.679-5.939-6.84 0-11.97 10.439-11.97 18.629 0 3.33 1.53 5.67 3.87 5.67 2.43 0 4.23-2.16 5.13-4.59.27-.72.99-1.17 1.71-1.17 1.169 0 1.89.9 1.89 1.98 0 1.53-2.88 7.56-9.36 7.56-3.6 0-7.29-2.7-7.29-9.45 0-9.36 6.48-22.409 16.38-22.409 5.129 0 8.279 3.33 8.279 9.539 0 3.42-.54 7.38-1.17 10.8-.36 2.34-.9 5.4-.9 7.2zm-29.43-23.399c-9.36.54-11.16 11.519-13.229 23.039l-.54 2.97c-.181 1.08-.99 1.71-1.98 1.71-1.08 0-1.8-.9-1.8-1.98 0-.63 2.52-15.39 2.52-18.36 0-3.96-.81-5.489-1.98-6.659-.45-.36-.54-.9-.54-1.44 0-1.08.9-1.98 1.89-1.98 1.709 0 4.23 3.06 4.05 7.559 1.979-5.939 6.839-8.639 11.339-8.639 1.17 0 2.16.81 2.16 1.98 0 1.08-.81 1.71-1.89 1.8zm-29.519 2.79c-.63 0-1.26-.36-1.71-.99-.63-.9-1.53-1.71-3.15-1.71-7.019 0-10.799 9.449-10.799 16.109 0 7.2 4.05 8.1 6.029 8.1 2.43 0 5.58-1.26 7.38-4.5.36-.63.9-1.17 1.71-1.17 1.08 0 1.71.9 1.71 2.07 0 1.71-4.23 7.2-11.07 7.2-5.579 0-9.809-3.6-9.809-11.7 0-9.81 6.21-19.979 15.119-19.979 3.69 0 5.49 1.53 6.21 3.33.18.36.27.9.27 1.26 0 1.08-.72 1.98-1.89 1.98zm-52.379.9c-.54 0-1.44-.451-1.62-1.171-.27-.899-1.529-2.879-3.869-2.879-2.88 0-4.5 1.8-4.5 4.14 0 1.709.81 2.789 4.41 4.949 4.409 2.61 7.379 5.22 7.379 9.81 0 5.58-3.96 9.719-10.799 9.719-5.13 0-9.81-2.969-9.81-7.469 0-3.78 2.79-6.48 6.21-6.48 1.62 0 3.24.54 3.24 2.34 0 1.53-1.26 1.8-1.8 1.71-.54-.09-.81-.27-1.44-.27-1.71 0-2.16 1.35-2.16 2.61 0 2.16 2.61 4.32 5.85 4.32 3.239 0 6.659-1.89 6.659-5.94 0-2.16-1.079-4.68-5.129-6.84-2.88-1.53-6.57-3.96-6.57-8.459 0-3.69 2.97-7.56 8.55-7.56 5.399 0 7.469 3.87 7.469 5.4 0 1.17-.9 2.07-2.07 2.07zM8.054 7.641l-2.52 4.95.09-5.22-4.5-.36 4.41-2.52-.45-4.14 2.7 2.97 5.04-.63-3.6 2.52 5.489 3.51-6.659-1.08zm-.9 6.75c.9.27 1.53 1.08 1.53 1.98 0 .09 0 .27-.09.45C6.974 23.3 5.264 35 4.724 43.55c-.09 1.079-.9 1.889-1.98 1.889-1.17 0-2.07-.899-2.07-2.069s1.35-16.83 4.05-27.539c.18-1.08 1.35-1.71 2.43-1.44z"/></svg>